<?xml version="1.0" encoding="UTF-8"?>
<svg width="141px" height="36px" viewBox="0 0 141 36" version="1.1" xmlns="http://www.w3.org/2000/svg" xmlns:xlink="http://www.w3.org/1999/xlink">
    <!-- Generator: Sketch 57.1 (83088) - https://sketch.com -->
    <title>Group</title>
    <desc>Created with Sketch.</desc>
    <defs>
        <polygon id="path-1" points="4.26325641e-14 0 146.65141 0 146.65141 35.7161455 4.26325641e-14 35.7161455"></polygon>
    </defs>
    <g id="Page-1" stroke="none" stroke-width="1" fill="none" fill-rule="evenodd">
        <g id="Mobile" transform="translate(-18.000000, -23.000000)">
            <g id="Group" transform="translate(18.000000, 23.000000)">
                <mask id="mask-2" fill="white">
                    <use xlink:href="#path-1"></use>
                </mask>
                <g id="Clip-1"></g>
                <path d="M18.7421432,4.56203636 C17.7969903,4.56203636 17.0277379,5.34567273 17.0277379,6.30930909 C17.0277379,7.27258182 17.7969903,8.05621818 18.7421432,8.05621818 C19.6876529,8.05621818 20.4565485,7.27258182 20.4565485,6.30930909 C20.4565485,5.34567273 19.6876529,4.56203636 18.7421432,4.56203636" id="Fill-2" fill="#156D5C" mask="url(#mask-2)"></path>
                <path d="M38.9520029,14.3466909 C38.8785029,14.3997818 38.8025053,14.4470545 38.726151,14.4946909 C38.5905684,14.5794182 38.4510612,14.6557818 38.3069155,14.7234182 C38.2259228,14.7616 38.1445733,14.7994182 38.061083,14.8317818 C37.9048063,14.8925091 37.7438913,14.9394182 37.5808354,14.9797818 C37.5051947,14.9986909 37.4313379,15.0230545 37.3546267,15.0372364 C37.1130757,15.0823273 36.8668864,15.1110545 36.6157019,15.1110545 C35.619884,15.1110545 34.6593888,14.7350545 33.9333087,14.0736 L33.574015,13.7070545 L22.4391218,2.35905455 L22.6375005,2.15650909 C23.89485,0.876145455 25.9400053,0.875418182 27.1969981,2.15650909 L32.9774519,8.04814545 L39.0647505,14.2521455 C39.0262165,14.2823273 38.9912505,14.3179636 38.9520029,14.3466909 M40.7327723,14.3885091 L39.8693257,13.5088727 L33.7442068,7.26669091 L27.9637529,1.37505455 C26.2839568,-0.337309091 23.5505417,-0.336218182 21.8707456,1.37505455 L21.6645175,1.58523636 C20.8717165,0.854327273 19.8580587,0.4496 18.7812481,0.4496 C17.6305806,0.4496 16.548418,0.906690909 15.7349228,1.73578182 L5.37427718,12.2946909 C4.09659029,13.5976 3.79367039,15.5208727 4.46052233,17.1208727 C4.77485971,16.9412364 5.09883058,16.7772364 5.43314854,16.6332364 C4.96360485,15.4470545 5.19944709,14.0361455 6.14103204,13.0761455 L16.5016777,2.51723636 C17.1107286,1.89687273 17.920299,1.55505455 18.7812481,1.55505455 C19.6421971,1.55505455 20.4517675,1.89687273 21.0611752,2.5176 L23.4934544,4.99614545 L32.8072602,14.4885091 L33.1883184,14.8761455 C34.1352553,15.7401455 35.3522869,16.2161455 36.6157019,16.2161455 C36.8875806,16.2161455 37.1544641,16.1888727 37.4181364,16.1470545 C37.4580976,16.1405091 37.4984155,16.1361455 37.5383767,16.1288727 C37.788134,16.0830545 38.0318257,16.0168727 38.2701655,15.9346909 C38.3154786,15.9190545 38.3600782,15.9023273 38.4046777,15.8852364 C38.6419471,15.7957818 38.873151,15.6910545 39.0950782,15.5663273 C39.1257626,15.5492364 39.1546631,15.5292364 39.1849908,15.5114182 C39.4058476,15.3808727 39.6192117,15.2357818 39.8208015,15.0714182 C39.8297214,15.0637818 39.8404252,15.0586909 39.8493451,15.0514182 L39.9660175,15.1699636 C41.2226534,16.4514182 41.2226534,18.5357818 39.9660175,19.8168727 L29.6046583,30.3761455 C29.5011874,30.4823273 29.3816607,30.5848727 29.2293087,30.6986909 L26.3264155,33.6485091 C25.7173646,34.2692364 24.9077942,34.6110545 24.0468451,34.6110545 C23.1858961,34.6110545 22.3759689,34.2692364 21.7672748,33.6485091 L18.2000272,30.0132364 C18.0423233,30.3659636 17.8674932,30.7085091 17.6719689,31.0379636 L21.0005199,34.4299636 C21.814015,35.2594182 22.8961777,35.7161455 24.0468451,35.7161455 C25.1975126,35.7161455 26.2796752,35.2594182 27.0931704,34.4299636 L29.9057942,31.5637818 C30.088117,31.4248727 30.2372578,31.2950545 30.3721267,31.1572364 L40.7327723,20.5983273 C42.4122117,18.8863273 42.4122117,16.1008727 40.7327723,14.3885091" id="Fill-3" fill="#156D5C" mask="url(#mask-2)"></path>
                <path d="M38.9520029,14.3466909 C38.8785029,14.3997818 38.8025053,14.4470545 38.726151,14.4946909 C38.5905684,14.5794182 38.4510612,14.6557818 38.3069155,14.7234182 C38.2259228,14.7616 38.1445733,14.7994182 38.061083,14.8317818 C37.9048063,14.8925091 37.7438913,14.9394182 37.5808354,14.9797818 C37.5051947,14.9986909 37.4313379,15.0230545 37.3546267,15.0372364 C37.1130757,15.0823273 36.8668864,15.1110545 36.6157019,15.1110545 C35.619884,15.1110545 34.6593888,14.7350545 33.9333087,14.0736 L33.574015,13.7070545 L22.4391218,2.35905455 L22.6375005,2.15650909 C23.89485,0.876145455 25.9400053,0.875418182 27.1969981,2.15650909 L32.9774519,8.04814545 L39.0647505,14.2521455 C39.0262165,14.2823273 38.9912505,14.3179636 38.9520029,14.3466909 Z M40.7327723,14.3885091 L39.8693257,13.5088727 L33.7442068,7.26669091 L27.9637529,1.37505455 C26.2839568,-0.337309091 23.5505417,-0.336218182 21.8707456,1.37505455 L21.6645175,1.58523636 C20.8717165,0.854327273 19.8580587,0.4496 18.7812481,0.4496 C17.6305806,0.4496 16.548418,0.906690909 15.7349228,1.73578182 L5.37427718,12.2946909 C4.09659029,13.5976 3.79367039,15.5208727 4.46052233,17.1208727 C4.77485971,16.9412364 5.09883058,16.7772364 5.43314854,16.6332364 C4.96360485,15.4470545 5.19944709,14.0361455 6.14103204,13.0761455 L16.5016777,2.51723636 C17.1107286,1.89687273 17.920299,1.55505455 18.7812481,1.55505455 C19.6421971,1.55505455 20.4517675,1.89687273 21.0611752,2.5176 L23.4934544,4.99614545 L32.8072602,14.4885091 L33.1883184,14.8761455 C34.1352553,15.7401455 35.3522869,16.2161455 36.6157019,16.2161455 C36.8875806,16.2161455 37.1544641,16.1888727 37.4181364,16.1470545 C37.4580976,16.1405091 37.4984155,16.1361455 37.5383767,16.1288727 C37.788134,16.0830545 38.0318257,16.0168727 38.2701655,15.9346909 C38.3154786,15.9190545 38.3600782,15.9023273 38.4046777,15.8852364 C38.6419471,15.7957818 38.873151,15.6910545 39.0950782,15.5663273 C39.1257626,15.5492364 39.1546631,15.5292364 39.1849908,15.5114182 C39.4058476,15.3808727 39.6192117,15.2357818 39.8208015,15.0714182 C39.8297214,15.0637818 39.8404252,15.0586909 39.8493451,15.0514182 L39.9660175,15.1699636 C41.2226534,16.4514182 41.2226534,18.5357818 39.9660175,19.8168727 L29.6046583,30.3761455 C29.5011874,30.4823273 29.3816607,30.5848727 29.2293087,30.6986909 L26.3264155,33.6485091 C25.7173646,34.2692364 24.9077942,34.6110545 24.0468451,34.6110545 C23.1858961,34.6110545 22.3759689,34.2692364 21.7672748,33.6485091 L18.2000272,30.0132364 C18.0423233,30.3659636 17.8674932,30.7085091 17.6719689,31.0379636 L21.0005199,34.4299636 C21.814015,35.2594182 22.8961777,35.7161455 24.0468451,35.7161455 C25.1975126,35.7161455 26.2796752,35.2594182 27.0931704,34.4299636 L29.9057942,31.5637818 C30.088117,31.4248727 30.2372578,31.2950545 30.3721267,31.1572364 L40.7327723,20.5983273 C42.4122117,18.8863273 42.4122117,16.1008727 40.7327723,14.3885091 Z" id="Stroke-4" stroke="#156D5C" stroke-width="0.5" mask="url(#mask-2)"></path>
                <path d="M6.44837621,24.9484 C6.39628398,24.7047636 6.20718204,24.5167636 5.92959466,24.4309455 C5.47289563,24.2898545 4.98551214,24.1444 4.49420388,24.0491273 C4.21376214,23.9953091 3.83698544,24.1800364 3.70925243,24.4294909 C3.62290777,24.5978545 3.61363107,24.7814909 3.6839199,24.9462182 C3.76277184,25.1316727 3.93795874,25.2742182 4.16452427,25.3374909 L4.42891019,25.4131273 L2.51255825,27.1305818 L1.69585194,24.6654909 L2.62851699,24.9178545 C2.85151456,24.9771273 3.08628641,25.0156727 3.29108738,24.8898545 C3.50480825,24.7589455 3.57652427,24.5185818 3.63646602,24.2625818 L3.69462379,24.0109455 C3.8309199,23.4185818 3.97185437,22.8065818 4.21518932,22.2745818 C4.74431796,21.1178545 5.68554612,20.2480364 7.09275,19.6145818 C7.70929369,19.3360364 7.64221602,18.9142182 7.54730825,18.6876727 C7.45204369,18.4604 7.30254612,18.3604 7.1937233,18.3164 C7.02210437,18.2465818 6.82515291,18.2607636 6.60679369,18.3574909 C4.41820631,19.3327636 3.02741505,20.9385818 2.47366748,23.1302182 C2.44655097,23.2374909 2.42193204,23.3454909 2.3980267,23.4560364 L2.22176942,23.4084 C1.81109709,23.2978545 1.4150534,23.1913091 1.02186408,23.0742182 C0.615830097,22.9531273 0.295427184,23.0473091 0.0681480583,23.3524 L2.30926389e-14,23.4444 L2.30926389e-14,23.7873091 L0.0706456311,24.0345818 C0.103114078,24.1171273 0.13593932,24.1993091 0.163769417,24.2836727 L1.52316262,28.3745818 C1.56490777,28.5000364 1.69264078,28.8818545 2.03445146,28.9764 C2.08333252,28.9898545 2.13257039,28.9964 2.18180825,28.9964 C2.34557767,28.9964 2.51184466,28.9222182 2.67811165,28.7753091 C3.85304126,27.7364 5.02297573,26.6913091 6.18755825,25.6404 C6.40556068,25.4440364 6.50082524,25.1913091 6.44837621,24.9484" id="Fill-5" fill="#8FBF35" mask="url(#mask-2)"></path>
                <path d="M15.2130371,30.0123273 C14.8751512,29.8926909 14.5361949,29.7774182 14.1968818,29.6617818 L13.0818939,29.2788727 C12.3586682,29.0294182 11.6354425,28.7803273 10.9086488,28.5414182 C10.7113405,28.4763273 10.3474085,28.4577818 10.155809,28.6719636 C9.98490364,28.8636 9.95528956,29.1788727 10.0023867,29.4072364 C10.0926561,29.8486909 10.1982677,30.3192364 10.3581124,30.7694182 C10.4437434,31.0108727 10.7759206,31.3552364 11.0966803,31.3221455 C11.3346633,31.3043273 11.4688187,31.1832364 11.5394643,31.0846909 C11.6618454,30.9137818 11.6900323,30.6821455 11.622241,30.3970545 C11.6058284,30.3272364 11.5879886,30.2577818 11.569792,30.1868727 L13.9828041,31.0192364 L12.2990833,32.9676 C12.213809,32.6421455 12.1321027,32.3316 12.0464716,32.0232364 C11.9772532,31.7730545 11.8809182,31.5265091 11.64686,31.4137818 C11.399957,31.2937818 11.1419934,31.3912364 10.9200663,31.4901455 C9.9706318,31.9130545 9.03225801,32.0508727 8.04785752,31.9116 C7.08094005,31.7752364 6.17753228,31.3843273 5.28661238,30.7166909 C4.74606626,30.3123273 4.41710024,30.6348727 4.30078471,30.7919636 C4.15271432,30.9919636 4.14308083,31.1796 4.16092063,31.3017818 C4.18018762,31.4330545 4.25119005,31.6250545 4.48132354,31.7959636 C6.10510267,32.9985091 7.72210267,33.4821455 9.42045218,33.2683273 C9.83647646,33.2166909 10.25036,33.1246909 10.6503284,33.0356 C10.742025,33.0156 10.8344352,32.9952364 10.9272022,32.9745091 L11.0242507,33.3556 C11.1102386,33.6977818 11.1965833,34.0399636 11.2989837,34.3777818 C11.3571415,34.5705091 11.5341124,34.9156 11.8256148,34.9879636 C11.8659328,34.9977818 11.9069643,35.0025091 11.9479959,35.0025091 C12.2041755,35.0025091 12.4585711,34.8232364 12.5820226,34.6832364 C13.424775,33.7228727 14.2578939,32.7537818 15.0913697,31.7846909 L15.5441439,31.2577818 C15.626207,31.1621455 15.8766779,30.8708727 15.7878357,30.5290545 C15.6986367,30.1843273 15.3332774,30.0548727 15.2130371,30.0123273" id="Fill-6" fill="#8FBF35" mask="url(#mask-2)"></path>
                <path d="M15.1606238,20.7426182 L15.3015583,20.6029818 C15.6269563,20.2811636 15.9441481,19.9677091 16.2534903,19.6469818 C16.4679248,19.4248 16.5517718,19.1440727 16.4775583,18.8968 C16.4072694,18.6615273 16.2128155,18.4946182 15.9437913,18.4386182 C14.4249102,18.1222545 12.9038883,17.8128 11.3807257,17.5171636 C11.2626262,17.4935273 10.9076141,17.4255273 10.6724854,17.6651636 C10.4359296,17.9073455 10.5062184,18.2789818 10.5294102,18.4011636 C10.820199,19.9404364 11.1227621,21.4775273 11.4303204,23.0138909 C11.4881214,23.3033455 11.6536748,23.5124364 11.8845218,23.5869818 C12.1171529,23.6618909 12.3772573,23.5866182 12.5938325,23.3778909 C12.8439466,23.1375273 13.0851408,22.8884364 13.3266917,22.6393455 L13.6064199,22.3513455 C13.7844612,22.1698909 13.8718762,21.9557091 13.852966,21.7488 C13.8369102,21.5717091 13.742716,21.4153455 13.5889369,21.3077091 C13.3520243,21.1415273 12.9420655,21.2055273 12.7237063,21.3669818 C12.6409296,21.4284364 12.5663592,21.4971636 12.495,21.5706182 L11.9976262,19.0135273 L14.5233859,19.5317091 C14.2668495,19.7815273 14.0320777,20.0109818 13.8012306,20.2444364 C13.6463811,20.4018909 13.4719078,20.6175273 13.4965267,20.8909818 C13.5211456,21.1629818 13.7277306,21.3397091 13.9050583,21.4629818 C14.6646772,21.9928 15.2334102,22.6935273 15.6444393,23.6037091 C16.0708107,24.5491636 16.2153131,25.6073455 16.0868665,26.8386182 C16.05975,27.0953455 16.1082743,27.3029818 16.2313689,27.4546182 C16.3073665,27.5484364 16.4486578,27.6644364 16.6919927,27.6848 C16.7144709,27.6869818 16.7365922,27.6880727 16.758,27.6880727 C16.9656553,27.6880727 17.1040922,27.6000727 17.1857985,27.5222545 C17.3292306,27.3862545 17.4027306,27.1851636 17.3991626,26.9422545 C17.3959515,26.7273455 17.3988058,26.5109818 17.402017,26.2946182 C17.4091529,25.7869818 17.4170024,25.2615273 17.3417184,24.7433455 C17.1176505,23.1920727 16.3844345,21.8480727 15.1606238,20.7426182" id="Fill-7" fill="#8FBF35" mask="url(#mask-2)"></path>
                <text id="GreenCat" mask="url(#mask-2)" font-family="Mont-Bold, Mont" font-size="18.658" font-weight="bold" letter-spacing="-0.074632">
                    <tspan x="49" y="17.784" fill="#156D5C">G</tspan>
                    <tspan x="63.721162" y="17.784" letter-spacing="-0.233225" fill="#156D5C">r</tspan>
                    <tspan x="70.857847" y="17.784" fill="#156D5C">een</tspan>
                    <tspan x="106.252073" y="17.784" font-family="Mont-Light, Mont" font-weight="300" fill="#8FBF35">Cat</tspan>
                </text>
            </g>
        </g>
    </g>
</svg>