<svg id="icon" data-name="icon" xmlns="http://www.w3.org/2000/svg" xmlns:xlink="http://www.w3.org/1999/xlink" viewBox="0 0 879.86 811.19"><defs><style>.cls-1{fill:none;}.cls-2{fill:#c45c4c;}.cls-3{clip-path:url(#clip-path);}.cls-4{fill:#fff;}</style><clipPath id="clip-path" transform="translate(-0.57 62.13)"><circle class="cls-1" cx="375" cy="373.94" r="374"/></clipPath></defs><title>icon</title><circle class="cls-2" cx="374" cy="437.19" r="374"/><g class="cls-3"><path class="cls-4" d="M830.59,8.71,812.45-12.5l-9.07,7.76L440.32,305.72c-13.28,11.35-18.56,11.95-33.48,3.74-35.46-19.5-76.79-15.19-108.44,11.73C253.54,359.34,208.89,397.74,164.08,436c-10.64,9.08-21,9.65-29.12,2.05-9.31-8.7-9.58-21.25.2-30.31,10.6-9.84,21.82-19,32.85-28.4,37.59-32,74.3-65.06,113.1-95.48s82.74-34.71,128.61-17.71c7.18,2.66,11.51,2.2,17.33-2.8Q610.21,106.18,793.74-50.52c3.24-2.77,6.35-5.8,9.93-8.09,8.69-5.57,19.34-4.52,26,3.08,15.61,17.81,31.07,35.77,46.16,54,7.81,9.44,5.5,20.77-5.44,30.16Q818.7,73,766.9,117.2,632.25,232.36,497.56,347.43c-4.26,3.63-6.79,6.56-5.34,13.12,11.44,51.91-2.08,96.78-41.74,132.07-45.22,40.23-91.79,78.94-137.77,118.31-7.34,6.29-15.4,9-24.5,4.23-7.29-3.79-12.41-10.37-10.71-18.27a34.86,34.86,0,0,1,10.41-17.8c42.93-37.37,86.34-74.17,129.6-111.17,36.08-30.86,46.14-67.71,30.7-112.3-4.06-11.73-2-18.18,8.83-27.47L820.09,17.69Z" transform="translate(-0.57 62.13)"/></g><path class="cls-4" d="M328.49,497.39q-31.86,27.27-63.75,54.51c-11.89,10.13-23.64,10.26-32.08.5s-6.53-21.51,5.31-31.64q63.35-54.21,126.76-108.36c11.63-9.93,24.24-10.15,32.35-.72s6,21.86-5.61,31.82Q360,470.5,328.49,497.39Z" transform="translate(-0.57 62.13)"/><path class="cls-4" d="M251.86,407.53q31.51-26.92,63-53.85c11.54-9.84,24.32-9.92,32.29-.35s5.75,21.78-6,31.81q-63.33,54.24-126.74,108.38c-11.79,10.07-23.69,10-32.06.1s-6.21-21.37,5.71-31.59Q220,434.75,251.86,407.53Z" transform="translate(-0.57 62.13)"/><path class="cls-4" d="M456.78,691.55A334.24,334.24,0,0,1,419.07,699a326.93,326.93,0,0,1-305-521.45,326.93,326.93,0,0,1,481.25-43.6s5.53,4.23,1.5,8.49S588,142,588,142a314.94,314.94,0,1,0,48.38,55.94s-3.22-5.31,1.51-7.9a5.58,5.58,0,0,1,7.53,1.77A327.09,327.09,0,0,1,456.78,691.55Z" transform="translate(-0.57 62.13)"/></svg>